HIERARCHY
ROOT Hips
{
	OFFSET 0.000000 121.760803 0.000000
	CHANNELS 6 Xposition Yposition Zposition Xrotation Yrotation Zrotation 
	JOINT Spine
	{
		OFFSET 0.072000 7.257294 -0.789700
		CHANNELS 3 Xrotation Yrotation Zrotation
		JOINT Spine1
		{
			OFFSET 0.000000 12.508769 -0.658067
			CHANNELS 3 Xrotation Yrotation Zrotation
			JOINT Spine1_split
			{
				OFFSET 0.000000 12.508769 -0.658067
				CHANNELS 3 Xrotation Yrotation Zrotation
				JOINT Spine2
				{
					OFFSET 0.000000 12.508769 -0.658067
					CHANNELS 3 Xrotation Yrotation Zrotation
					JOINT Neck
					{
						OFFSET 0.000000 14.033295 7.520400
						CHANNELS 3 Xrotation Yrotation Zrotation
						JOINT Head
						{
							OFFSET 0.000000 8.198502 5.703100
							CHANNELS 3 Xrotation Yrotation Zrotation
							JOINT HeadTop_End
							{
								OFFSET 0.000000 17.760803 13.332701
								CHANNELS 3 Xrotation Yrotation Zrotation
								End Site
								{
									OFFSET 0.000000 0.000000 0.000000
								}
							}
						}
					}
					JOINT LeftShoulder
					{
						OFFSET 6.292450 5.785301 -0.669000
						CHANNELS 3 Xrotation Yrotation Zrotation
						JOINT LeftShoulder_split
						{
							OFFSET 6.292450 5.785301 -0.669000
							CHANNELS 3 Xrotation Yrotation Zrotation
							JOINT LeftArm
							{
								OFFSET 13.907140 -6.093903 1.965100
								CHANNELS 3 Xrotation Yrotation Zrotation
								JOINT LeftForeArm
								{
									OFFSET 34.140198 0.000000 0.000000
									CHANNELS 3 Xrotation Yrotation Zrotation
									JOINT LeftHand
									{
										OFFSET 40.960209 0.000000 0.000000
										CHANNELS 3 Xrotation Yrotation Zrotation
										JOINT LeftHandThumb1
										{
											OFFSET 10.006996 -7.170425 9.573125
											CHANNELS 3 Xrotation Yrotation Zrotation
											JOINT LeftHandThumb2
											{
												OFFSET 1.835007 -1.059448 1.059443
												CHANNELS 3 Xrotation Yrotation Zrotation
												JOINT LeftHandThumb3
												{
													OFFSET 2.112267 -1.219513 1.219518
													CHANNELS 3 Xrotation Yrotation Zrotation
													JOINT LeftHandThumb4
													{
														OFFSET 4.843811 -2.796570 2.796576
														CHANNELS 3 Xrotation Yrotation Zrotation
														End Site
														{
															OFFSET 0.000000 0.000000 0.000000
														}
													}
												}
											}
										}
										JOINT LeftHandIndex1
										{
											OFFSET 18.389847 -0.922348 4.596882
											CHANNELS 3 Xrotation Yrotation Zrotation
											JOINT LeftHandIndex2
											{
												OFFSET 4.711273 0.000000 0.000000
												CHANNELS 3 Xrotation Yrotation Zrotation
												JOINT LeftHandIndex3
												{
													OFFSET 2.886131 0.000000 0.000000
													CHANNELS 3 Xrotation Yrotation Zrotation
													JOINT LeftHandIndex4
													{
														OFFSET 6.145912 0.000000 0.000000
														CHANNELS 3 Xrotation Yrotation Zrotation
														End Site
														{
															OFFSET 0.000000 0.000000 0.000000
														}
													}
												}
											}
										}
										JOINT LeftHandMiddle1
										{
											OFFSET 18.013008 0.000000 0.000000
											CHANNELS 3 Xrotation Yrotation Zrotation
											JOINT LeftHandMiddle2
											{
												OFFSET 4.946693 0.000000 0.000000
												CHANNELS 3 Xrotation Yrotation Zrotation
												JOINT LeftHandMiddle3
												{
													OFFSET 3.342232 0.000000 0.000000
													CHANNELS 3 Xrotation Yrotation Zrotation
													JOINT LeftHandMiddle4
													{
														OFFSET 4.461754 0.000000 0.000000
														CHANNELS 3 Xrotation Yrotation Zrotation
														End Site
														{
															OFFSET 0.000000 0.000000 0.000000
														}
													}
												}
											}
										}
										JOINT LeftHandRing1
										{
											OFFSET 15.849892 -0.102921 -4.126150
											CHANNELS 3 Xrotation Yrotation Zrotation
											JOINT LeftHandRing2
											{
												OFFSET 3.527054 0.000000 0.000000
												CHANNELS 3 Xrotation Yrotation Zrotation
												JOINT LeftHandRing3
												{
													OFFSET 2.961098 0.000000 0.000000
													CHANNELS 3 Xrotation Yrotation Zrotation
													JOINT LeftHandRing4
													{
														OFFSET 4.927200 0.000000 0.000000
														CHANNELS 3 Xrotation Yrotation Zrotation
														End Site
														{
															OFFSET 0.000000 0.000000 0.000000
														}
													}
												}
											}
										}
										JOINT LeftHandPinky1
										{
											OFFSET 12.791824 -0.832031 -6.799156
											CHANNELS 3 Xrotation Yrotation Zrotation
											JOINT LeftHandPinky2
											{
												OFFSET 3.327133 0.000000 0.000000
												CHANNELS 3 Xrotation Yrotation Zrotation
												JOINT LeftHandPinky3
												{
													OFFSET 3.014900 0.000000 0.000000
													CHANNELS 3 Xrotation Yrotation Zrotation
													JOINT LeftHandPinky4
													{
														OFFSET 5.847786 0.000000 0.000000
														CHANNELS 3 Xrotation Yrotation Zrotation
														End Site
														{
															OFFSET 0.000000 0.000000 0.000000
														}
													}
												}
											}
										}
									}
								}
							}
						}
					}
					JOINT RightShoulder
					{
						OFFSET -6.292450 5.785301 -0.669000
						CHANNELS 3 Xrotation Yrotation Zrotation
						JOINT RightShoulder_split
						{
							OFFSET -6.292450 5.785301 -0.669000
							CHANNELS 3 Xrotation Yrotation Zrotation
							JOINT RightArm
							{
								OFFSET -13.907140 -6.093903 1.965100
								CHANNELS 3 Xrotation Yrotation Zrotation
								JOINT RightForeArm
								{
									OFFSET -34.140198 0.000000 0.000000
									CHANNELS 3 Xrotation Yrotation Zrotation
									JOINT RightHand
									{
										OFFSET -40.960209 0.000000 0.000000
										CHANNELS 3 Xrotation Yrotation Zrotation
										JOINT RightHandThumb1
										{
											OFFSET -10.007050 -7.170456 9.573117
											CHANNELS 3 Xrotation Yrotation Zrotation
											JOINT RightHandThumb2
											{
												OFFSET -1.835007 -1.059448 1.059443
												CHANNELS 3 Xrotation Yrotation Zrotation
												JOINT RightHandThumb3
												{
													OFFSET -2.112267 -1.219513 1.219518
													CHANNELS 3 Xrotation Yrotation Zrotation
													JOINT RightHandThumb4
													{
														OFFSET -4.843834 -2.796585 2.796590
														CHANNELS 3 Xrotation Yrotation Zrotation
														End Site
														{
															OFFSET 0.000000 0.000000 0.000000
														}
													}
												}
											}
										}
										JOINT RightHandIndex1
										{
											OFFSET -18.389870 -0.922424 4.596786
											CHANNELS 3 Xrotation Yrotation Zrotation
											JOINT RightHandIndex2
											{
												OFFSET -4.711273 0.000000 0.000000
												CHANNELS 3 Xrotation Yrotation Zrotation
												JOINT RightHandIndex3
												{
													OFFSET -2.886131 0.000000 0.000000
													CHANNELS 3 Xrotation Yrotation Zrotation
													JOINT RightHandIndex4
													{
														OFFSET -6.145920 0.000000 0.000000
														CHANNELS 3 Xrotation Yrotation Zrotation
														End Site
														{
															OFFSET 0.000000 0.000000 0.000000
														}
													}
												}
											}
										}
										JOINT RightHandMiddle1
										{
											OFFSET -18.013008 0.000000 0.000000
											CHANNELS 3 Xrotation Yrotation Zrotation
											JOINT RightHandMiddle2
											{
												OFFSET -4.946693 0.000000 0.000000
												CHANNELS 3 Xrotation Yrotation Zrotation
												JOINT RightHandMiddle3
												{
													OFFSET -3.342232 0.000000 0.000000
													CHANNELS 3 Xrotation Yrotation Zrotation
													JOINT RightHandMiddle4
													{
														OFFSET -4.461754 0.000000 0.000000
														CHANNELS 3 Xrotation Yrotation Zrotation
														End Site
														{
															OFFSET 0.000000 0.000000 0.000000
														}
													}
												}
											}
										}
										JOINT RightHandRing1
										{
											OFFSET -15.849876 -0.102936 -4.126237
											CHANNELS 3 Xrotation Yrotation Zrotation
											JOINT RightHandRing2
											{
												OFFSET -3.527054 0.000000 0.000000
												CHANNELS 3 Xrotation Yrotation Zrotation
												JOINT RightHandRing3
												{
													OFFSET -2.961098 0.000000 0.000000
													CHANNELS 3 Xrotation Yrotation Zrotation
													JOINT RightHandRing4
													{
														OFFSET -4.927200 0.000000 0.000000
														CHANNELS 3 Xrotation Yrotation Zrotation
														End Site
														{
															OFFSET 0.000000 0.000000 0.000000
														}
													}
												}
											}
										}
										JOINT RightHandPinky1
										{
											OFFSET -12.791786 -0.832077 -6.799222
											CHANNELS 3 Xrotation Yrotation Zrotation
											JOINT RightHandPinky2
											{
												OFFSET -3.327133 0.000000 0.000000
												CHANNELS 3 Xrotation Yrotation Zrotation
												JOINT RightHandPinky3
												{
													OFFSET -3.014900 0.000000 0.000000
													CHANNELS 3 Xrotation Yrotation Zrotation
													JOINT RightHandPinky4
													{
														OFFSET -5.847786 0.000000 0.000000
														CHANNELS 3 Xrotation Yrotation Zrotation
														End Site
														{
															OFFSET 0.000000 0.000000 0.000000
														}
													}
												}
											}
										}
									}
								}
							}
						}
					}
				}
			}
		}
	}
	JOINT LeftUpLeg
	{
		OFFSET 13.026900 -6.336304 -1.092800
		CHANNELS 3 Xrotation Yrotation Zrotation
		JOINT LeftLeg
		{
			OFFSET 0.524474 -46.096886 9.782700
			CHANNELS 3 Xrotation Yrotation Zrotation
			JOINT LeftFoot
			{
				OFFSET -0.524474 -53.427422 -12.948200
				CHANNELS 3 Xrotation Yrotation Zrotation
				JOINT LeftToeBase
				{
					OFFSET 0.192200 -14.009700 16.364100
					CHANNELS 3 Xrotation Yrotation Zrotation
					JOINT LeftToe_End
					{
						OFFSET -1.784700 -0.561700 9.474800
						CHANNELS 3 Xrotation Yrotation Zrotation
						End Site
						{
							OFFSET 0.000000 0.000000 0.000000
						}
					}
				}
			}
		}
	}
	JOINT RightUpLeg
	{
		OFFSET -12.883000 -6.336304 -1.092800
		CHANNELS 3 Xrotation Yrotation Zrotation
		JOINT RightLeg
		{
			OFFSET -0.524587 -46.096825 9.782800
			CHANNELS 3 Xrotation Yrotation Zrotation
			JOINT RightFoot
			{
				OFFSET 0.524587 -53.427383 -12.948300
				CHANNELS 3 Xrotation Yrotation Zrotation
				JOINT RightToeBase
				{
					OFFSET -0.192200 -14.009700 16.364100
					CHANNELS 3 Xrotation Yrotation Zrotation
					JOINT RightToe_End
					{
						OFFSET 1.784700 -0.561700 9.474800
						CHANNELS 3 Xrotation Yrotation Zrotation
						End Site
						{
							OFFSET 0.000000 0.000000 0.000000
						}
					}
				}
			}
		}
	}
}
MOTION
Frames: 4
Frame Time: 0.016667
-2.391674 116.128807 -1.907593 1.173396 6.115500 6.550706 8.176451 -1.043300 5.771744 1.977286 -0.412823 1.344542 0.000000 0.000000 0.000000 1.971131 -0.404078 1.350294 1.471614 0.251579 3.770397 -5.997184 -13.685525 -0.924695 0.000001 0.000001 0.000000 0.635355 -5.283651 -12.880634 0.000000 0.000000 0.000000 5.726502 -4.951277 -42.398652 0.000029 -65.564366 0.000027 -5.370035 -8.061439 -58.939697 -7.220062 -16.942339 15.004570 8.206667 0.329531 4.976436 -0.103957 -18.233011 11.581002 0.000001 -0.000000 0.000001 -0.931689 -1.396883 -13.797131 1.148783 3.485790 -36.471018 0.124351 1.201814 -11.812880 0.000002 -0.000001 0.000001 0.832882 5.259378 -29.649165 1.128764 3.458580 -36.139979 0.564533 2.511091 -25.337427 -0.000001 -0.000003 0.000001 6.569925 12.601601 -38.071225 2.521130 4.813786 -55.264666 0.033468 0.626017 -6.120695 0.000001 -0.000000 0.000001 9.474773 25.638736 -47.959997 1.102912 3.422987 -35.709636 0.497493 2.364421 -23.761234 -0.000000 0.000001 0.000000 1.688120 19.320710 11.981023 0.000000 0.000000 0.000000 -17.246738 18.683095 60.973133 0.000048 95.131749 -0.000038 -19.139406 -6.743520 -4.914005 17.887581 49.319061 12.919679 30.991922 -39.602892 28.049266 11.489524 -46.546797 8.464871 -0.000002 0.000001 0.000000 3.343364 -6.897280 53.623259 1.487413 -3.413766 47.076519 0.006944 -0.254486 3.125534 0.000001 0.000000 0.000000 3.298251 -6.778209 63.367032 1.097402 -3.004786 40.118182 0.322980 -1.705781 21.442824 -0.000000 0.000000 0.000002 5.188514 -7.512440 67.475869 0.689925 -2.441250 31.557414 0.692962 -2.446191 31.628721 0.000001 0.000000 -0.000002 0.768508 -22.546639 59.828912 1.001582 -2.887414 38.254138 0.497023 -2.095252 26.686464 0.000000 0.000000 0.000000 -9.985696 6.271341 0.366581 16.398366 4.633214 0.072157 -4.875036 0.689027 -5.609672 -2.517685 0.000010 0.000002 -0.000000 0.000000 -0.000000 -13.826258 -10.982828 -13.952304 23.538244 -0.750305 -1.959358 -10.763709 -8.087395 6.974949 -2.518104 -0.000005 0.000002 -0.000000 -0.000003 -0.000000 
-2.353272 116.121292 -1.839468 1.144034 6.045781 6.555166 8.140726 -1.191381 5.780062 1.971235 -0.454236 1.335346 0.000000 0.000000 0.000000 1.964733 -0.445020 1.341883 1.502340 0.283005 3.704584 -6.423703 -13.408006 -1.036778 0.000001 -0.000001 0.000000 0.638346 -5.316638 -12.830689 0.000000 0.000000 0.000000 5.804762 -5.004721 -42.414945 -0.000002 -65.564311 -0.000003 -5.414956 -8.062179 -59.000677 -7.220060 -16.942339 15.004566 8.205381 0.326296 4.976841 -0.100217 -18.247776 11.598973 -0.000002 -0.000001 0.000001 -0.925469 -1.417186 -13.702029 1.148256 3.485083 -36.462193 0.124390 1.202118 -11.815995 0.000002 0.000003 -0.000002 0.830614 5.255385 -29.604062 1.128868 3.458719 -36.142151 0.564993 2.512065 -25.347923 0.000001 0.000002 0.000000 6.563244 12.601801 -38.034544 2.517018 4.810937 -55.215768 0.033456 0.625899 -6.119607 -0.000001 0.000000 0.000001 9.464109 25.640240 -47.933028 1.103971 3.424464 -35.727531 0.497436 2.364301 -23.759749 0.000000 0.000002 0.000000 1.742137 19.638216 11.894623 0.000000 0.000000 0.000000 -14.648420 20.367931 60.669183 0.000230 96.789955 -0.000224 -19.473470 -6.938341 -5.387766 16.983672 48.490423 13.131513 30.991936 -39.602878 28.049266 11.603383 -46.676932 8.513027 0.000002 -0.000001 -0.000000 3.357178 -6.907513 53.814671 1.499348 -3.424799 47.276677 0.007122 -0.258022 3.168992 0.000001 0.000001 0.000001 3.331220 -6.794227 63.393567 1.109703 -3.019319 40.352505 0.317806 -1.692526 21.267799 -0.000000 -0.000000 0.000001 5.186944 -7.514278 67.421883 0.696300 -2.451619 31.707326 0.698802 -2.455648 31.765495 0.000001 0.000000 0.000001 0.773488 -22.549316 59.891429 0.988318 -2.870536 37.990298 0.502904 -2.106907 26.846960 -0.000000 -0.000001 0.000001 -9.896344 6.300200 0.357671 16.419252 4.657337 0.059492 -4.980317 0.691175 -5.554524 -2.495853 -0.000001 -0.000000 -0.000000 0.000000 -0.000000 -13.690190 -10.684248 -13.910425 23.534960 -0.970963 -1.961386 -10.782292 -8.118760 7.067712 -2.518104 -0.000005 0.000002 -0.000000 0.000000 -0.000000 
-2.315678 116.114403 -1.776081 1.110627 5.969148 6.542317 8.103957 -1.367959 5.786314 1.966687 -0.503289 1.325315 0.000000 0.000000 0.000000 1.959777 -0.493537 1.332817 1.524711 0.316483 3.633391 -6.840204 -13.129488 -1.161067 -0.000000 -0.000000 -0.000001 0.638524 -5.362369 -12.762704 0.000000 0.000000 0.000000 5.906799 -5.087489 -42.408829 0.000042 -65.558621 0.000060 -5.511701 -8.054031 -59.056418 -7.220058 -16.942341 15.004566 8.201850 0.319202 4.980775 -0.095890 -18.265802 11.621327 -0.000001 -0.000002 0.000003 -0.919230 -1.438414 -13.606793 1.147731 3.484391 -36.453853 0.124470 1.202404 -11.818805 0.000000 -0.000002 0.000002 0.828531 5.251735 -29.562896 1.128926 3.458816 -36.143264 0.565376 2.512825 -25.356497 0.000002 -0.000001 0.000000 6.558661 12.601988 -38.009228 2.513632 4.808614 -55.175375 0.033447 0.625807 -6.118589 0.000002 -0.000000 -0.000000 9.456694 25.641288 -47.914323 1.106376 3.427802 -35.767594 0.497368 2.364136 -23.758219 0.000000 -0.000001 0.000001 1.812177 19.996176 11.753381 0.000000 0.000000 0.000000 -12.150135 22.247786 60.206041 -0.000075 98.202595 0.000065 -19.507447 -7.108538 -5.826922 16.072046 47.646320 13.324324 30.991970 -39.602864 28.049282 11.720577 -46.810288 8.562912 0.000000 0.000002 -0.000001 3.371445 -6.918004 54.010971 1.511642 -3.436094 47.481938 0.007348 -0.261647 3.213569 -0.000000 -0.000001 0.000001 3.365036 -6.810622 63.420779 1.122390 -3.034166 40.592791 0.312529 -1.678903 21.088250 -0.000001 -0.000001 -0.000000 5.185275 -7.516147 67.366470 0.702900 -2.462262 31.861111 0.704837 -2.465324 31.905788 0.000001 0.000000 0.000001 0.778647 -22.552048 59.955551 0.974798 -2.853189 37.719774 0.508980 -2.118843 27.011528 0.000000 -0.000000 0.000001 -9.807649 6.324959 0.376429 16.435599 4.687356 0.043964 -5.064006 0.693920 -5.560796 -2.463929 0.000006 0.000001 -0.000000 0.000001 -0.000000 -13.544385 -10.385211 -13.849231 23.521934 -1.191612 -1.963279 -10.793410 -8.148255 7.156987 -2.518104 -0.000004 0.000002 0.000000 0.000001 0.000000 
-2.271451 116.111000 -1.715206 1.084341 5.911345 6.517214 8.071080 -1.567864 5.787457 1.963648 -0.558698 1.313116 0.000000 0.000000 0.000000 1.956316 -0.548352 1.321720 1.539978 0.351073 3.559215 -7.224476 -12.849048 -1.292570 0.000001 -0.000000 -0.000000 0.637408 -5.414066 -12.664165 0.000000 0.000000 0.000000 6.031522 -5.194024 -42.395240 0.000011 -65.552064 0.000020 -5.622244 -8.057210 -59.067421 -7.220059 -16.942339 15.004568 8.194864 0.306792 4.986438 -0.091804 -18.279943 11.640772 0.000000 -0.000001 0.000001 -0.913715 -1.457655 -13.524779 1.147215 3.483650 -36.444899 0.124518 1.202635 -11.821113 -0.000001 0.000002 -0.000001 0.826827 5.248736 -29.529203 1.129000 3.458919 -36.144340 0.565684 2.513489 -25.363438 -0.000000 -0.000002 -0.000000 6.557023 12.602186 -37.999535 2.511932 4.807418 -55.155212 0.033441 0.625699 -6.117729 -0.000001 -0.000000 0.000000 9.453328 25.641768 -47.905782 1.108099 3.430171 -35.796236 0.497313 2.364008 -23.756757 -0.000001 0.000001 0.000001 1.891717 20.393152 11.594519 0.000000 0.000000 0.000000 -9.757502 24.346247 59.504089 0.000105 99.316934 -0.000096 -19.132791 -7.232193 -6.153905 15.156395 46.791355 13.496817 30.992014 -39.602837 28.049294 11.840663 -46.946247 8.614379 0.000003 -0.000000 0.000001 3.386101 -6.928660 54.211222 1.524190 -3.447561 47.691342 0.007546 -0.265339 3.259039 0.000001 -0.000000 -0.000003 3.399552 -6.827302 63.448557 1.135374 -3.049272 40.837954 0.307164 -1.664991 20.905010 0.000001 0.000000 0.000000 5.183527 -7.518028 67.309971 0.709661 -2.473093 32.018107 0.710995 -2.475207 32.048877 0.000001 -0.000000 -0.000000 0.783947 -22.554830 60.020998 0.961093 -2.835412 37.443760 0.515192 -2.131010 27.179426 0.000000 -0.000000 -0.000000 -9.730152 6.350973 0.401071 16.446957 4.695472 0.027659 -5.148845 0.695547 -5.553858 -2.425414 0.000005 -0.000001 0.000000 0.000004 0.000000 -13.391233 -10.083760 -13.778335 23.491012 -1.437392 -1.965175 -10.794631 -8.177656 7.256071 -2.518104 -0.000005 0.000002 0.000000 0.000001 -0.000000 
